<svg version="1.0" xmlns="http://www.w3.org/2000/svg"
 width="512.000000pt" height="512.000000pt" viewBox="0 0 512.000000 512.000000"
 preserveAspectRatio="xMidYMid meet">
    <g transform="translate(0.000000,512.000000) scale(0.100000,-0.100000)"
    fill="#000000" stroke="none">
        <path d="M2330 5109 c-470 -43 -920 -218 -1310 -507 -150 -111 -391 -352 -502
        -502 -295 -397 -464 -840 -508 -1330 -46 -521 83 -1070 360 -1530 206 -343
        527 -664 870 -870 460 -277 1009 -406 1530 -360 490 44 933 213 1330 508 150
        111 391 352 502 502 295 397 464 840 508 1330 46 521 -83 1070 -360 1530 -206
        343 -527 664 -870 870 -464 280 -1017 407 -1550 359z"/>
    </g>
</svg>
